<svg xmlns="http://www.w3.org/2000/svg" viewBox="0 0 32 80">
  <defs>
    <linearGradient id="b" x1="0" y1="0" x2="0" y2="1">
      <stop offset="0%" stop-color="#1f2353"/>
      <stop offset="100%" stop-color="#0f1127"/>
    </linearGradient>
  </defs>
  <rect width="32" height="80" rx="2" fill="url(#b)"/>
  <g fill="#fbbf24" opacity="0.85">
    <rect x="5" y="8" width="4" height="6" rx="1"/>
    <rect x="13" y="8" width="4" height="6" rx="1"/>
    <rect x="21" y="8" width="4" height="6" rx="1"/>
    <rect x="5" y="20" width="4" height="6" rx="1"/>
    <rect x="13" y="20" width="4" height="6" rx="1"/>
    <rect x="21" y="20" width="4" height="6" rx="1"/>
    <rect x="5" y="32" width="4" height="6" rx="1"/>
    <rect x="13" y="32" width="4" height="6" rx="1"/>
    <rect x="21" y="32" width="4" height="6" rx="1"/>
    <rect x="5" y="44" width="4" height="6" rx="1"/>
    <rect x="13" y="44" width="4" height="6" rx="1"/>
    <rect x="21" y="44" width="4" height="6" rx="1"/>
    <rect x="5" y="56" width="4" height="6" rx="1"/>
    <rect x="13" y="56" width="4" height="6" rx="1"/>
    <rect x="21" y="56" width="4" height="6" rx="1"/>
  </g>
  <rect x="0" y="76" width="32" height="4" fill="#070816"/>
</svg>