<svg xmlns="http://www.w3.org/2000/svg" viewBox="0 0 32 120">
  <defs>
    <linearGradient id="b" x1="0" y1="0" x2="0" y2="1">
      <stop offset="0%" stop-color="#161a43"/>
      <stop offset="100%" stop-color="#090a1b"/>
    </linearGradient>
  </defs>
  <rect width="32" height="120" rx="2" fill="url(#b)"/>
  <g fill="#a78bfa" opacity="0.82">
    <rect x="5" y="8" width="4" height="6" rx="1"/>
    <rect x="13" y="8" width="4" height="6" rx="1"/>
    <rect x="21" y="8" width="4" height="6" rx="1"/>
    <rect x="5" y="20" width="4" height="6" rx="1"/>
    <rect x="13" y="20" width="4" height="6" rx="1"/>
    <rect x="21" y="20" width="4" height="6" rx="1"/>
    <rect x="5" y="32" width="4" height="6" rx="1"/>
    <rect x="13" y="32" width="4" height="6" rx="1"/>
    <rect x="21" y="32" width="4" height="6" rx="1"/>
    <rect x="5" y="44" width="4" height="6" rx="1"/>
    <rect x="13" y="44" width="4" height="6" rx="1"/>
    <rect x="21" y="44" width="4" height="6" rx="1"/>
    <rect x="5" y="56" width="4" height="6" rx="1"/>
    <rect x="13" y="56" width="4" height="6" rx="1"/>
    <rect x="21" y="56" width="4" height="6" rx="1"/>
    <rect x="5" y="68" width="4" height="6" rx="1"/>
    <rect x="13" y="68" width="4" height="6" rx="1"/>
    <rect x="21" y="68" width="4" height="6" rx="1"/>
    <rect x="5" y="80" width="4" height="6" rx="1"/>
    <rect x="13" y="80" width="4" height="6" rx="1"/>
    <rect x="21" y="80" width="4" height="6" rx="1"/>
    <rect x="5" y="92" width="4" height="6" rx="1"/>
    <rect x="13" y="92" width="4" height="6" rx="1"/>
    <rect x="21" y="92" width="4" height="6" rx="1"/>
    <rect x="5" y="104" width="4" height="6" rx="1"/>
    <rect x="13" y="104" width="4" height="6" rx="1"/>
    <rect x="21" y="104" width="4" height="6" rx="1"/>
  </g>
  <rect x="0" y="116" width="32" height="4" fill="#050815"/>
</svg>